<svg width="734" height="600" viewBox="0 0 734 600" fill="none" xmlns="http://www.w3.org/2000/svg">
<rect width="734" height="600" fill="#1C2534"/>
<path d="M202.188 343.312C202.062 343.188 201.708 342.833 201.125 342.25C200.583 341.667 200 341 199.375 340.25C198.792 339.542 198.375 338.896 198.125 338.312C197.875 337.771 198 337.479 198.5 337.438C201.042 337.479 203.479 337.042 205.812 336.125C208.188 335.25 210.021 333.583 211.312 331.125C211.896 329.917 212.229 328.625 212.312 327.25C212.312 327.292 212.312 327.229 212.312 327.062C212.312 326.979 212.312 326.833 212.312 326.625C212.271 317.958 212.271 309.271 212.312 300.562C212.312 296.229 212.312 291.896 212.312 287.562C212.312 275.396 212.312 263.229 212.312 251.062C212.312 250.521 212.583 250.292 213.125 250.375C213.667 250.458 214.312 250.708 215.062 251.125C215.812 251.542 216.5 251.979 217.125 252.438C217.792 252.854 218.25 253.167 218.5 253.375C218.542 253.375 218.562 253.375 218.562 253.375C220.479 254.75 222.271 256.292 223.938 258C223.979 258.083 224.042 258.167 224.125 258.25C224.375 258.5 224.688 258.833 225.062 259.25C225.438 259.625 225.771 260.042 226.062 260.5C226.396 260.917 226.562 261.271 226.562 261.562C226.562 266.396 226.562 271.229 226.562 276.062C226.562 280.021 226.562 283.979 226.562 287.938C229.021 285.479 231.208 282.75 233.125 279.75C235.083 276.75 236.896 273.688 238.562 270.562C241.521 264.771 245.042 259.604 249.125 255.062C253.208 250.479 258.396 247.396 264.688 245.812C265.146 245.771 265.688 245.917 266.312 246.25C266.938 246.583 267.5 246.938 268 247.312C268.208 247.438 268.396 247.562 268.562 247.688C270.521 248.979 272.375 250.417 274.125 252C274.292 252.167 274.667 252.521 275.25 253.062C275.833 253.604 276.417 254.229 277 254.938C277.583 255.646 277.979 256.271 278.188 256.812C278.438 257.354 278.312 257.708 277.812 257.875C271.646 259.458 266.646 262.562 262.812 267.188C259.021 271.771 255.646 276.854 252.688 282.438C249.646 288.104 246.208 293.229 242.375 297.812C243.667 298.521 244.854 299.333 245.938 300.25C248.354 302.375 250.146 304.875 251.312 307.75C252.479 310.625 253.354 313.646 253.938 316.812C254.021 317.146 254.104 317.5 254.188 317.875C254.688 320.792 255.375 323.667 256.25 326.5C257.125 329.292 258.5 331.812 260.375 334.062C262.208 336.146 264.458 337.688 267.125 338.688C269.833 339.688 272.5 339.729 275.125 338.812C275.917 338.479 276.375 338.438 276.5 338.688C276.625 338.979 276.521 339.396 276.188 339.938C275.896 340.521 275.542 341.083 275.125 341.625C274.75 342.208 274.438 342.625 274.188 342.875C272.896 344.417 271.417 345.938 269.75 347.438C268.083 348.979 266.333 350.146 264.5 350.938C258.75 352.979 253.438 352.083 248.562 348.25C246.188 346.167 244.438 343.667 243.312 340.75C242.229 337.833 241.417 334.833 240.875 331.75C240.833 331.667 240.812 331.583 240.812 331.5C240.229 328.25 239.438 325.083 238.438 322C237.438 318.875 235.792 316.125 233.5 313.75C231.417 311.75 229.104 310.229 226.562 309.188C226.562 313.312 226.562 317.417 226.562 321.5C226.562 323.583 226.562 325.646 226.562 327.688C226.562 328.854 226.562 330.021 226.562 331.188C226.604 333.312 226.604 335.417 226.562 337.5C226.354 341.792 224.771 344.854 221.812 346.688C218.854 348.562 215.458 349.5 211.625 349.5C211.083 349.458 210.521 349.271 209.938 348.938C209.354 348.646 208.792 348.333 208.25 348C208.083 347.875 207.917 347.75 207.75 347.625C205.792 346.333 203.938 344.896 202.188 343.312ZM295.75 326.625C295.5 325.083 295.438 323.5 295.562 321.875C295.562 321.625 295.562 321.396 295.562 321.188C292.562 324.104 289.188 326.646 285.438 328.812C283.146 330.146 280.688 330.979 278.062 331.312C275.479 331.646 273.083 331.312 270.875 330.312C268.667 329.312 266.979 327.438 265.812 324.688C264.438 320.812 264.25 316.896 265.25 312.938C266.292 308.979 268.021 305.396 270.438 302.188C274.021 297.688 278.146 293.708 282.812 290.25C283.854 289.458 284.896 288.688 285.938 287.938C286.104 287.812 286.25 287.708 286.375 287.625C286.458 287.583 286.625 287.458 286.875 287.25C287.042 287.125 287.208 287 287.375 286.875C287.542 286.75 287.688 286.646 287.812 286.562C290.229 283.396 293.062 280.708 296.312 278.5C296.521 278.375 296.917 278.167 297.5 277.875C298.125 277.542 298.75 277.25 299.375 277C300 276.75 300.438 276.688 300.688 276.812C300.938 276.938 300.812 277.375 300.312 278.125C297.521 282.125 294.25 285.708 290.5 288.875C288.917 290.208 287.292 291.5 285.625 292.75C284.667 293.458 283.688 294.167 282.688 294.875C282.646 294.917 282.562 294.979 282.438 295.062C282.354 295.146 282.25 295.229 282.125 295.312C282.042 295.396 281.938 295.479 281.812 295.562C281.771 295.604 281.708 295.646 281.625 295.688C281.625 295.729 281.625 295.75 281.625 295.75C281.625 295.75 281.604 295.771 281.562 295.812C281.146 296.479 280.771 297.167 280.438 297.875C279.104 300.75 278.417 303.75 278.375 306.875C278.333 310.167 279.188 313.062 280.938 315.562C282.729 318.021 285.333 319.354 288.75 319.562C289.542 319.521 290.312 319.396 291.062 319.188C291.188 319.146 291.312 319.104 291.438 319.062C291.479 319.062 291.5 319.042 291.5 319C291.958 318.333 292.375 317.688 292.75 317.062C293.542 315.479 294.312 313.896 295.062 312.312C295.104 312.271 295.125 312.208 295.125 312.125C295.25 311.875 295.417 311.625 295.625 311.375C295.625 308.125 295.625 304.875 295.625 301.625C295.625 300.042 295.625 298.438 295.625 296.812C295.625 296.312 295.833 295.792 296.25 295.25C296.708 294.708 297.167 294.229 297.625 293.812C297.792 293.604 297.938 293.438 298.062 293.312C299.646 291.604 301.354 290.042 303.188 288.625C303.354 288.5 303.75 288.208 304.375 287.75C305 287.292 305.688 286.833 306.438 286.375C307.188 285.917 307.854 285.625 308.438 285.5C309.021 285.333 309.312 285.542 309.312 286.125C309.312 289.458 309.312 292.812 309.312 296.188C309.312 300.896 309.312 305.604 309.312 310.312C309.312 310.771 309.312 311.208 309.312 311.625C309.312 312.5 309.312 313.354 309.312 314.188C309.312 314.271 309.312 314.354 309.312 314.438C309.312 314.438 309.312 314.458 309.312 314.5C309.312 314.5 309.312 314.562 309.312 314.688C309.354 314.771 309.375 314.875 309.375 315C309.417 315.167 309.438 315.312 309.438 315.438C309.479 315.562 309.521 315.667 309.562 315.75C310.188 317.958 311.542 319.521 313.625 320.438C314.958 320.854 316.354 321.021 317.812 320.938C318.104 320.938 318.375 320.938 318.625 320.938C322.417 320.938 326.188 320.938 329.938 320.938C330.438 320.938 330.583 321.208 330.375 321.75C330.167 322.25 329.792 322.854 329.25 323.562C328.708 324.271 328.167 324.917 327.625 325.5C327.083 326.083 326.729 326.458 326.562 326.625C324.938 328.25 323.167 329.729 321.25 331.062C321.167 331.104 321.062 331.167 320.938 331.25C320.479 331.583 319.896 331.958 319.188 332.375C318.521 332.792 317.938 333 317.438 333C316.021 333 314.604 333 313.188 333C310.312 333 307.458 333 304.625 333C302.417 333 300.5 332.5 298.875 331.5C297.25 330.5 296.208 328.875 295.75 326.625ZM286.062 275.375C286.021 275.417 285.979 275.438 285.938 275.438C285.771 275.562 285.5 275.729 285.125 275.938C284.792 276.104 284.458 276.229 284.125 276.312C283.792 276.396 283.521 276.354 283.312 276.188C280.938 274.229 278.583 272.25 276.25 270.25C275.958 269.958 276.042 269.479 276.5 268.812C276.958 268.104 277.562 267.354 278.312 266.562C279.104 265.729 279.833 265 280.5 264.375C281.208 263.708 281.667 263.271 281.875 263.062C281.917 263.062 281.938 263.062 281.938 263.062C283.521 261.604 285.229 260.333 287.062 259.25C287.104 259.25 287.146 259.229 287.188 259.188C287.354 259.062 287.604 258.917 287.938 258.75C288.312 258.583 288.667 258.458 289 258.375C289.333 258.25 289.604 258.271 289.812 258.438C292.188 260.438 294.542 262.417 296.875 264.375C297.167 264.667 297.083 265.167 296.625 265.875C296.167 266.583 295.542 267.354 294.75 268.188C294 268.979 293.271 269.708 292.562 270.375C291.896 271 291.458 271.396 291.25 271.562C291.208 271.562 291.188 271.562 291.188 271.562C289.604 273.021 287.896 274.292 286.062 275.375ZM362.938 326.625C361.271 328.25 359.479 329.729 357.562 331.062C357.479 331.104 357.375 331.167 357.25 331.25C356.792 331.583 356.229 331.958 355.562 332.375C354.896 332.792 354.312 333 353.812 333C343.396 333 335.896 333 331.312 333C330.896 333 330.479 333 330.062 333C328.146 333.083 326.271 332.958 324.438 332.625C322.604 332.25 321.104 331.208 319.938 329.5C319.188 328.208 318.792 326.812 318.75 325.312C318.625 322.938 318.625 320.542 318.75 318.125C318.75 317 318.771 315.896 318.812 314.812C318.896 306.979 318.979 297.646 319.062 286.812C319.188 275.979 319.292 267.312 319.375 260.812C319.417 260.312 319.646 259.792 320.062 259.25C320.479 258.708 320.917 258.229 321.375 257.812C321.542 257.604 321.688 257.438 321.812 257.312C323.396 255.604 325.104 254.042 326.938 252.625C327.104 252.5 327.5 252.208 328.125 251.75C328.75 251.292 329.438 250.833 330.188 250.375C330.938 249.917 331.583 249.625 332.125 249.5C332.708 249.375 333.021 249.562 333.062 250.062C332.979 259.479 332.875 268.896 332.75 278.312C333.333 278.354 333.917 278.396 334.5 278.438C336.5 278.646 338.5 278.75 340.5 278.75C341.875 278.75 343.229 278.646 344.562 278.438C345.271 278.271 345.979 278.083 346.688 277.875C346.854 277.833 347 277.792 347.125 277.75C347.708 277.292 348.375 276.833 349.125 276.375C349.917 275.875 350.625 275.542 351.25 275.375C351.875 275.208 352.25 275.375 352.375 275.875C352.375 276.167 352.229 276.542 351.938 277C351.646 277.417 351.312 277.833 350.938 278.25C350.562 278.667 350.271 279 350.062 279.25C349.979 279.292 349.938 279.333 349.938 279.375C348.312 281.042 346.604 282.604 344.812 284.062C341.021 287.188 336.958 289.229 332.625 290.188C332.625 291.188 332.625 292.167 332.625 293.125C332.583 297.542 332.542 301.958 332.5 306.375C332.458 307.167 332.438 308.042 332.438 309C332.354 311.208 332.354 313.042 332.438 314.5C332.438 314.5 332.438 314.583 332.438 314.75C332.479 314.875 332.521 315.042 332.562 315.25C332.604 315.458 332.646 315.667 332.688 315.875C332.771 316.083 332.833 316.25 332.875 316.375C333.208 317.292 333.729 318.125 334.438 318.875C335.604 320 338.5 320.667 343.125 320.875C347.792 321.042 350.979 321.062 352.688 320.938C353.438 320.938 354.146 320.938 354.812 320.938C358.646 320.938 362.479 320.938 366.312 320.938C366.812 320.938 366.938 321.208 366.688 321.75C366.479 322.25 366.104 322.854 365.562 323.562C365.021 324.271 364.479 324.917 363.938 325.5C363.438 326.083 363.104 326.458 362.938 326.625ZM379.25 325.5C379.208 325.458 379.188 325.375 379.188 325.25C379.396 320.708 379.396 316.167 379.188 311.625C379.146 310.75 379.125 309.875 379.125 309C379.125 305.5 378.771 302.083 378.062 298.75C376.896 294.583 374.146 292.229 369.812 291.688C369.271 291.646 368.708 291.625 368.125 291.625C368.083 297.25 368.021 302.875 367.938 308.5C367.896 314.167 367.854 319.812 367.812 325.438C367.771 325.896 367.542 326.396 367.125 326.938C366.708 327.479 366.271 327.979 365.812 328.438C365.646 328.604 365.5 328.75 365.375 328.875C363.792 330.583 362.083 332.146 360.25 333.562C360.083 333.688 359.688 333.979 359.062 334.438C358.438 334.896 357.729 335.354 356.938 335.812C356.188 336.271 355.542 336.562 355 336.688C354.458 336.854 354.167 336.667 354.125 336.125C354.25 323.625 354.354 311.125 354.438 298.625C354.562 286.167 354.667 273.708 354.75 261.25C354.792 260.792 355.021 260.292 355.438 259.75C355.896 259.208 356.333 258.708 356.75 258.25C356.917 258.083 357.062 257.938 357.188 257.812C358.771 256.104 360.479 254.542 362.312 253.125C362.479 253 362.875 252.708 363.5 252.25C364.125 251.792 364.812 251.333 365.562 250.875C366.354 250.417 367.021 250.125 367.562 250C368.146 249.833 368.438 250.021 368.438 250.562C368.396 256.229 368.354 261.875 368.312 267.5C368.271 273.167 368.229 278.833 368.188 284.5C370.771 282.708 373.521 281.333 376.438 280.375C378.688 279.667 381.021 279.458 383.438 279.75C385.896 280.042 387.979 281.104 389.688 282.938C390.979 284.521 391.792 286.438 392.125 288.688C392.458 290.896 392.625 293.083 392.625 295.25C392.667 296.167 392.708 297.062 392.75 297.938C393.083 303.438 393.125 308.938 392.875 314.438C392.917 314.479 392.938 314.583 392.938 314.75C392.979 314.917 393 315.083 393 315.25C393.042 315.375 393.083 315.5 393.125 315.625C393.375 316.542 393.771 317.396 394.312 318.188C395.896 320.062 398.229 320.958 401.312 320.875C403.854 320.917 406.396 320.917 408.938 320.875C410.188 320.875 411.458 320.875 412.75 320.875C413.25 320.875 413.375 321.146 413.125 321.688C412.917 322.229 412.542 322.854 412 323.562C411.458 324.271 410.917 324.917 410.375 325.5C409.875 326.083 409.542 326.458 409.375 326.625C407.708 328.25 405.938 329.708 404.062 331C403.938 331.083 403.833 331.167 403.75 331.25C403.25 331.583 402.667 331.958 402 332.375C401.333 332.75 400.75 332.938 400.25 332.938C398.333 332.938 396.729 332.958 395.438 333C392.812 333.042 390.208 333.021 387.625 332.938C385.25 332.896 383.312 332.229 381.812 330.938C380.312 329.646 379.458 327.833 379.25 325.5ZM460.812 320.625C461.271 320.667 461.396 320.958 461.188 321.5C460.979 322 460.604 322.604 460.062 323.312C459.521 324.021 458.979 324.667 458.438 325.25C457.938 325.833 457.604 326.208 457.438 326.375C455.771 328 454 329.458 452.125 330.75C452 330.833 451.896 330.917 451.812 331C451.312 331.333 450.729 331.708 450.062 332.125C449.438 332.5 448.854 332.688 448.312 332.688C440.396 332.688 434.062 332.75 429.312 332.875C427.729 332.875 426.146 332.896 424.562 332.938C421.562 332.979 418.542 333 415.5 333C412.625 333.167 409.854 332.75 407.188 331.75C405.021 330.583 403.521 328.896 402.688 326.688C401.854 324.438 401.354 322.146 401.188 319.812C400.854 316.938 400.792 314.083 401 311.25C401.25 308.375 401.917 305.604 403 302.938C404.417 299.646 406.333 296.667 408.75 294C411.167 291.333 413.792 288.938 416.625 286.812C418.833 284.979 421.292 283.396 424 282.062C426.75 280.688 429.604 280.125 432.562 280.375C434.812 280.667 436.875 281.458 438.75 282.75C440.667 284 442.083 285.688 443 287.812C443.875 290.188 443.938 292.5 443.188 294.75C442.479 297 441.333 299.062 439.75 300.938C437.458 303.854 434.729 306.583 431.562 309.125C428.438 311.667 425.104 313.583 421.562 314.875C419.979 315.417 418.375 315.792 416.75 316C417.333 317.125 418.146 318.104 419.188 318.938C420.604 319.979 422.167 320.604 423.875 320.812C425.625 320.979 427.375 321.021 429.125 320.938C429.708 320.938 430.25 320.938 430.75 320.938C434.458 320.896 439.729 320.833 446.562 320.75C451.312 320.667 456.062 320.625 460.812 320.625ZM424 293.812C422.333 292.896 420.562 292.417 418.688 292.375C418.562 292.375 418.292 292.417 417.875 292.5C417.458 292.542 416.979 292.625 416.438 292.75C415.979 293.917 415.625 295.125 415.375 296.375C414.792 298.958 414.521 301.583 414.562 304.25C415.271 303.833 415.875 303.625 416.375 303.625C416.458 303.625 416.562 303.625 416.688 303.625C421.104 304.333 425.521 304.417 429.938 303.875C430.062 303.125 430.062 302.333 429.938 301.5C429.146 298.042 427.167 295.479 424 293.812ZM414.25 293.25C414.125 293.25 414.062 293.271 414.062 293.312C414.062 293.312 414.125 293.292 414.25 293.25ZM426.562 264.125C426.688 264.25 426.729 264.396 426.688 264.562C427.688 263.646 428.333 263.062 428.625 262.812C428.625 262.812 428.646 262.792 428.688 262.75C430.271 261.333 431.979 260.083 433.812 259C433.854 258.958 433.896 258.938 433.938 258.938C434.104 258.812 434.354 258.667 434.688 258.5C435.062 258.292 435.417 258.146 435.75 258.062C436.083 257.979 436.354 258.021 436.562 258.188C437.562 259.021 438.562 259.854 439.562 260.688C440.896 261.812 442.25 262.958 443.625 264.125C443.917 264.417 443.833 264.917 443.375 265.625C442.917 266.292 442.292 267.042 441.5 267.875C440.75 268.667 440.021 269.396 439.312 270.062C438.646 270.688 438.208 271.104 438 271.312C437.958 271.312 437.938 271.312 437.938 271.312C436.354 272.729 434.646 274 432.812 275.125C432.771 275.125 432.729 275.146 432.688 275.188C432.521 275.312 432.25 275.458 431.875 275.625C431.542 275.792 431.208 275.917 430.875 276C430.542 276.083 430.271 276.062 430.062 275.938C427.688 273.938 425.333 271.958 423 270C422.875 269.875 422.812 269.708 422.812 269.5C422.354 269.958 421.938 270.354 421.562 270.688C421.229 270.979 421 271.188 420.875 271.312C419.292 272.729 417.583 274 415.75 275.125C415.708 275.125 415.667 275.146 415.625 275.188C415.417 275.312 415.146 275.458 414.812 275.625C414.479 275.792 414.125 275.917 413.75 276C413.417 276.083 413.146 276.062 412.938 275.938C410.812 274.104 408.688 272.292 406.562 270.5C406.354 270.333 406.146 270.167 405.938 270C405.646 269.708 405.708 269.208 406.125 268.5C406.583 267.792 407.188 267.042 407.938 266.25C408.729 265.417 409.479 264.688 410.188 264.062C410.896 263.396 411.354 262.979 411.562 262.812C411.562 262.812 411.562 262.792 411.562 262.75C413.146 261.333 414.875 260.083 416.75 259C416.75 258.958 416.771 258.938 416.812 258.938C417.021 258.812 417.292 258.667 417.625 258.5C417.958 258.292 418.292 258.146 418.625 258.062C419 257.979 419.292 258.021 419.5 258.188C421.833 260.146 424.188 262.125 426.562 264.125ZM509.312 320.625C509.771 320.667 509.896 320.958 509.688 321.5C509.479 322 509.104 322.604 508.562 323.312C508.021 324.021 507.479 324.667 506.938 325.25C506.438 325.833 506.104 326.208 505.938 326.375C504.271 328 502.5 329.458 500.625 330.75C500.5 330.833 500.396 330.917 500.312 331C499.812 331.333 499.229 331.708 498.562 332.125C497.938 332.5 497.354 332.688 496.812 332.688C488.896 332.688 482.562 332.75 477.812 332.875C476.229 332.875 474.646 332.896 473.062 332.938C470.062 332.979 467.042 333 464 333C461.125 333.167 458.354 332.75 455.688 331.75C453.521 330.583 452.021 328.896 451.188 326.688C450.354 324.438 449.854 322.146 449.688 319.812C449.354 316.938 449.292 314.083 449.5 311.25C449.75 308.375 450.417 305.604 451.5 302.938C452.917 299.646 454.833 296.667 457.25 294C459.667 291.333 462.292 288.938 465.125 286.812C467.333 284.979 469.792 283.396 472.5 282.062C475.25 280.688 478.104 280.125 481.062 280.375C483.312 280.667 485.375 281.458 487.25 282.75C489.167 284 490.583 285.688 491.5 287.812C492.375 290.188 492.438 292.5 491.688 294.75C490.979 297 489.833 299.062 488.25 300.938C485.958 303.854 483.229 306.583 480.062 309.125C476.938 311.667 473.604 313.583 470.062 314.875C468.479 315.417 466.875 315.792 465.25 316C465.833 317.125 466.646 318.104 467.688 318.938C469.104 319.979 470.667 320.604 472.375 320.812C474.125 320.979 475.875 321.021 477.625 320.938C478.208 320.938 478.75 320.938 479.25 320.938C482.958 320.896 488.229 320.833 495.062 320.75C499.812 320.667 504.562 320.625 509.312 320.625ZM472.5 293.812C470.833 292.896 469.062 292.417 467.188 292.375C467.062 292.375 466.792 292.417 466.375 292.5C465.958 292.542 465.479 292.625 464.938 292.75C464.479 293.917 464.125 295.125 463.875 296.375C463.292 298.958 463.021 301.583 463.062 304.25C463.771 303.833 464.375 303.625 464.875 303.625C464.958 303.625 465.062 303.625 465.188 303.625C469.604 304.333 474.021 304.417 478.438 303.875C478.562 303.125 478.562 302.333 478.438 301.5C477.646 298.042 475.667 295.479 472.5 293.812ZM462.75 293.25C462.625 293.25 462.562 293.271 462.562 293.312C462.562 293.312 462.625 293.292 462.75 293.25ZM475.062 264.125C475.188 264.25 475.229 264.396 475.188 264.562C476.188 263.646 476.833 263.062 477.125 262.812C477.125 262.812 477.146 262.792 477.188 262.75C478.771 261.333 480.479 260.083 482.312 259C482.354 258.958 482.396 258.938 482.438 258.938C482.604 258.812 482.854 258.667 483.188 258.5C483.562 258.292 483.917 258.146 484.25 258.062C484.583 257.979 484.854 258.021 485.062 258.188C486.062 259.021 487.062 259.854 488.062 260.688C489.396 261.812 490.75 262.958 492.125 264.125C492.417 264.417 492.333 264.917 491.875 265.625C491.417 266.292 490.792 267.042 490 267.875C489.25 268.667 488.521 269.396 487.812 270.062C487.146 270.688 486.708 271.104 486.5 271.312C486.458 271.312 486.438 271.312 486.438 271.312C484.854 272.729 483.146 274 481.312 275.125C481.271 275.125 481.229 275.146 481.188 275.188C481.021 275.312 480.75 275.458 480.375 275.625C480.042 275.792 479.708 275.917 479.375 276C479.042 276.083 478.771 276.062 478.562 275.938C476.188 273.938 473.833 271.958 471.5 270C471.375 269.875 471.312 269.708 471.312 269.5C470.854 269.958 470.438 270.354 470.062 270.688C469.729 270.979 469.5 271.188 469.375 271.312C467.792 272.729 466.083 274 464.25 275.125C464.208 275.125 464.167 275.146 464.125 275.188C463.917 275.312 463.646 275.458 463.312 275.625C462.979 275.792 462.625 275.917 462.25 276C461.917 276.083 461.646 276.062 461.438 275.938C459.312 274.104 457.188 272.292 455.062 270.5C454.854 270.333 454.646 270.167 454.438 270C454.146 269.708 454.208 269.208 454.625 268.5C455.083 267.792 455.688 267.042 456.438 266.25C457.229 265.417 457.979 264.688 458.688 264.062C459.396 263.396 459.854 262.979 460.062 262.812C460.062 262.812 460.062 262.792 460.062 262.75C461.646 261.333 463.375 260.083 465.25 259C465.25 258.958 465.271 258.938 465.312 258.938C465.521 258.812 465.792 258.667 466.125 258.5C466.458 258.292 466.792 258.146 467.125 258.062C467.5 257.979 467.792 258.021 468 258.188C470.333 260.146 472.688 262.125 475.062 264.125ZM500.375 292C501.958 290.292 503.667 288.729 505.5 287.312C505.667 287.188 506.062 286.896 506.688 286.438C507.312 285.979 508 285.521 508.75 285.062C509.542 284.604 510.208 284.312 510.75 284.188C511.333 284.021 511.625 284.208 511.625 284.75C511.625 286.333 511.625 287.917 511.625 289.5C511.625 290.292 511.625 291.062 511.625 291.812C513.625 290.188 515.771 288.75 518.062 287.5C521.104 285.833 524.146 285.188 527.188 285.562C530.271 285.938 532.521 287.875 533.938 291.375C534.021 291.792 533.938 292.208 533.688 292.625C533.479 293.042 533.229 293.417 532.938 293.75C532.854 293.875 532.792 293.958 532.75 294C531.375 295.667 529.875 297.188 528.25 298.562C528.083 298.729 527.604 299.104 526.812 299.688C526.062 300.271 525.208 300.896 524.25 301.562C523.292 302.229 522.438 302.75 521.688 303.125C520.938 303.5 520.479 303.521 520.312 303.188C518.938 299.188 516.167 297.271 512 297.438C511.875 297.604 511.75 297.771 511.625 297.938C511.625 301.021 511.625 304.083 511.625 307.125C511.625 307.958 511.625 308.792 511.625 309.625C511.542 311.25 511.542 312.875 511.625 314.5C511.625 314.542 511.625 314.625 511.625 314.75C511.667 314.833 511.688 314.896 511.688 314.938C511.729 315.021 511.75 315.104 511.75 315.188C511.833 315.479 511.917 315.771 512 316.062C512.292 316.979 512.729 317.812 513.312 318.562C514.396 319.771 515.646 320.5 517.062 320.75C518.479 320.958 519.938 321.021 521.438 320.938C521.854 320.938 522.271 320.938 522.688 320.938C531.646 320.938 538.729 320.938 543.938 320.938C546.521 320.938 549.104 320.938 551.688 320.938C552.188 320.938 552.333 321.208 552.125 321.75C551.917 322.25 551.542 322.854 551 323.562C550.458 324.271 549.917 324.917 549.375 325.5C548.875 326.083 548.542 326.458 548.375 326.625C546.708 328.25 544.917 329.729 543 331.062C542.917 331.104 542.812 331.167 542.688 331.25C542.229 331.625 541.667 332.021 541 332.438C540.333 332.812 539.729 333 539.188 333C531.729 333 526.146 333 522.438 333C517.771 333 513.083 333 508.375 333C507.125 333 505.875 332.917 504.625 332.75C503.417 332.583 502.292 332.208 501.25 331.625C500.25 331.042 499.438 330.125 498.812 328.875C498.271 327.708 497.979 326.479 497.938 325.188C497.854 323.021 497.854 320.833 497.938 318.625C497.938 317.542 497.938 316.458 497.938 315.375C497.938 308.75 497.938 302.125 497.938 295.5C497.938 295 498.146 294.479 498.562 293.938C499.021 293.396 499.479 292.896 499.938 292.438C500.104 292.271 500.25 292.125 500.375 292ZM512.688 276.312C510.729 274.646 508.75 272.979 506.75 271.312C506.375 271.021 506 270.708 505.625 270.375C505.375 270.083 505.458 269.604 505.875 268.938C506.333 268.229 506.938 267.479 507.688 266.688C508.479 265.854 509.208 265.125 509.875 264.5C510.583 263.833 511.062 263.417 511.312 263.25C511.312 263.208 511.312 263.188 511.312 263.188C512.896 261.771 514.604 260.5 516.438 259.375C516.479 259.375 516.521 259.354 516.562 259.312C516.771 259.188 517.042 259.042 517.375 258.875C517.708 258.708 518.042 258.583 518.375 258.5C518.75 258.417 519.042 258.438 519.25 258.562C519.75 259.021 520.25 259.458 520.75 259.875C522.583 261.417 524.417 262.979 526.25 264.562C526.542 264.854 526.458 265.354 526 266.062C525.583 266.729 524.979 267.479 524.188 268.312C523.438 269.104 522.708 269.833 522 270.5C521.333 271.125 520.875 271.521 520.625 271.688C520.625 271.729 520.625 271.75 520.625 271.75C519.042 273.167 517.333 274.417 515.5 275.5C515.458 275.542 515.417 275.583 515.375 275.625C515.167 275.708 514.896 275.854 514.562 276.062C514.229 276.229 513.875 276.354 513.5 276.438C513.167 276.521 512.896 276.479 512.688 276.312Z" fill="#8CCB37"/>
</svg>
